<svg width="100" height="34" viewBox="0 0 100 34" fill="none" xmlns="http://www.w3.org/2000/svg">
<path d="M8.08825 20.5333C8.08825 20.5333 7.84315 19.6 7.84315 18.6667C7.10785 20.0667 6.12746 21 4.16667 21C1.47059 21 0 19.1333 0 15.8667C0 12.8333 1.71569 10.9667 3.92157 9.8C6.37256 8.63333 7.84315 7.46667 7.84315 5.13333C7.84315 2.8 7.10785 1.4 5.14707 1.4C3.18628 1.4 2.20589 2.8 2.20589 5.13333V5.83333H0.735295C0.735295 5.6 0.735295 5.13333 0.735295 5.13333C0.735295 2.1 1.96079 0 5.14707 0C8.33335 0 9.55884 2.1 9.55884 5.6V17.2667C9.55884 18.9 9.80394 20.7667 9.80394 20.7667H8.08825V20.5333ZM7.84315 8.4C7.35295 9.33333 6.61766 10.0333 4.90197 10.9667C2.45098 12.1333 1.71569 13.5333 1.71569 15.8667C1.71569 18.4333 2.69608 19.6 4.41177 19.6C6.12746 19.6 7.84315 17.9667 7.84315 15.6333V8.4Z" fill="#212121"/>
<path d="M16.2957 21C13.434 21 11.7646 19.1333 11.7646 15.6333V5.36667C11.7646 1.86667 13.434 0 16.2957 0C18.9189 0 20.5883 1.86667 20.5883 5.36667V5.83333H19.1574V5.36667C19.1574 2.8 18.2035 1.4 16.2957 1.4C14.3879 1.4 13.434 2.8 13.434 5.36667V15.4C13.434 17.9667 14.3879 19.3667 16.2957 19.3667C18.2035 19.3667 19.1574 17.9667 19.1574 15.4V15.1667H20.5883V15.6333C20.5883 19.1333 18.9189 21 16.2957 21Z" fill="#212121"/>
<path d="M26.9608 21C24.2648 21 22.5491 19.1333 22.5491 15.6333V5.36667C22.5491 1.86667 24.2648 0 26.9608 0C29.6569 0 31.3726 1.86667 31.3726 5.36667V5.83333H29.902V5.36667C29.902 2.8 28.9216 1.4 26.9608 1.4C25 1.4 24.0197 2.8 24.0197 5.36667V15.4C24.0197 17.9667 25 19.3667 26.9608 19.3667C28.9216 19.3667 29.902 17.9667 29.902 15.4V15.1667H31.3726V15.6333C31.3726 19.1333 29.6569 21 26.9608 21Z" fill="#212121"/>
<path d="M52.0641 5.83333V4.66667C52.0641 2.8 51.1353 1.4 49.5099 1.4C47.8845 1.4 46.7235 2.56667 46.7235 4.66667C46.7235 6.06667 47.4201 7.23333 48.3489 8.16667L51.5997 11.2C52.9928 12.3667 53.9216 13.7667 53.9216 16.1C53.9216 19.1333 52.2963 21 49.5099 21C46.2591 21 45.0981 18.6667 45.0981 15.8667V14.9333H46.4913V15.8667C46.4913 18.2 47.4201 19.6 49.5099 19.6C51.3675 19.6 52.5285 18.2 52.5285 16.1C52.5285 14.7 51.8319 13.5333 50.9031 12.3667L47.4201 9.33333C46.0269 8.16667 45.0981 6.76667 45.0981 4.66667C45.0981 1.86667 46.7235 0 49.2777 0C52.0641 0 53.4572 1.86667 53.4572 4.66667C53.4572 4.9 53.4572 5.6 53.4572 5.6H52.0641V5.83333Z" fill="#212121"/>
<path d="M60.6586 21C57.8934 21 55.8823 19.1333 55.8823 15.6333V5.36667C55.8823 1.86667 57.8934 0 60.6586 0C63.6752 0 65.6863 1.86667 65.6863 5.36667V15.4C65.6863 19.1333 63.6752 21 60.6586 21ZM63.9266 5.36667C63.9266 2.8 62.6697 1.4 60.6586 1.4C58.6475 1.4 57.3906 2.8 57.3906 5.36667V15.4C57.3906 17.9667 58.6475 19.3667 60.6586 19.3667C62.6697 19.3667 63.9266 17.9667 63.9266 15.4V5.36667Z" fill="#212121"/>
<path d="M75.1634 21V5.48864C75.1634 2.86364 74.5098 1.43182 72.7669 1.43182C70.8061 1.43182 69.9346 3.10227 69.9346 5.96591V21H68.6274V0.238636H69.9346V1.90909C70.1525 0.715909 71.4597 0 72.7669 0C75.3813 0 76.4706 1.67045 76.4706 5.48864V21H75.1634Z" fill="#212121"/>
<path d="M98.1424 5.83333V4.66667C98.1424 2.8 97.2136 1.4 95.5883 1.4C93.9629 1.4 92.8019 2.56667 92.8019 4.66667C92.8019 6.06667 93.4985 7.23333 94.4273 8.16667L97.678 11.2C99.0712 12.3667 100 13.7667 100 16.1C100 18.9 98.3746 21 95.5883 21C92.3375 21 91.1765 18.6667 91.1765 15.8667V14.9333H92.5697V15.8667C92.5697 18.2 93.4985 19.6 95.5883 19.6C97.4458 19.6 98.6068 18.2 98.6068 16.1C98.6068 14.7 97.9102 13.5333 96.9814 12.3667L93.7307 9.33333C92.3375 8.16667 91.4087 6.76667 91.4087 4.66667C91.4087 1.86667 93.0341 0 95.5883 0C98.1424 0 99.5356 1.86667 99.5356 4.66667C99.5356 4.9 99.5356 5.6 99.5356 5.6H98.1424V5.83333Z" fill="#212121"/>
<path d="M87.8224 0V15.5114C87.8224 18.1364 86.6614 19.5682 84.8038 19.5682C82.9463 19.5682 81.7853 18.1364 81.7853 15.5114V0H80.3921V15.5114C80.3921 19.3295 82.2497 21 84.8038 21C87.358 21 89.2156 19.0909 89.2156 15.5114V0H87.8224Z" fill="#212121"/>
<path d="M41.744 13.169V15.5634C41.744 18.1972 40.583 19.6338 38.7255 19.6338C36.8679 19.6338 35.7069 18.1972 35.7069 15.5634V0H34.3137V15.5634C34.3137 18.9155 35.9391 20.831 38.2611 21.0704V31.1268C37.7967 31.3662 37.3323 31.8451 37.3323 32.5634C37.3323 33.5211 38.0289 34 38.7255 34C39.6543 34 40.1187 33.2817 40.1187 32.5634C40.1187 31.8451 39.6543 31.3662 39.1899 31.1268V21.3099C41.5118 21.0704 43.1372 19.1549 43.1372 15.8028V0H41.744V13.169Z" fill="#212121"/>
</svg>
