<svg width="14" height="13" viewBox="0 0 14 13" fill="none" xmlns="http://www.w3.org/2000/svg">
<path d="M13.6559 0.938171L12.9284 0.360565C12.8239 0.278059 12.6915 0.241126 12.5604 0.257845C12.4292 0.274564 12.3098 0.343574 12.2284 0.44978L5.41093 9.37948L2.08743 6.00867C1.99366 5.91309 1.86651 5.8594 1.73393 5.8594C1.60134 5.8594 1.47419 5.91309 1.38043 6.00867L0.717926 6.68619C0.624191 6.7818 0.571533 6.91144 0.571533 7.04663C0.571533 7.18181 0.624191 7.31145 0.717926 7.40706L5.18093 11.9443C5.23107 11.9957 5.2914 12.0357 5.35788 12.0614C5.42436 12.0872 5.49547 12.0982 5.56645 12.0937C5.63744 12.0892 5.70667 12.0693 5.76952 12.0354C5.83237 12.0015 5.8874 11.9542 5.93093 11.8969L13.7434 1.65342C13.8248 1.54673 13.8613 1.41145 13.8449 1.27733C13.8285 1.1432 13.7605 1.02121 13.6559 0.938171Z" fill="#A2A2A2"/>
</svg>