<svg width="16" height="15" viewBox="0 0 16 15" fill="none" xmlns="http://www.w3.org/2000/svg">
<path d="M13 11.75L9.57291 9.875C8.93645 9.525 8.65494 9.15 8.65494 8.8125C8.65494 8 10.2461 6.85 10.2461 4C10.2461 1.625 9.00989 0 6.89244 0C4.54243 0 3.51431 2 3.51431 4.0125C3.51431 6.6625 5.06874 7.8625 5.06874 8.75C5.06874 9.1 4.83618 9.525 4.18749 9.875L0.760397 11.75C-0.451324 12.4125 0.148417 15 0.148417 15H11.5C11.5 15 13 12.375 13 11.75Z" fill="grey"/>
<circle cx="12" cy="11" r="3.5" fill="grey" stroke="black"/>
<path d="M12.6667 9C11.9238 9 11.3333 9.62 11.3333 10.4C11.3333 10.64 11.3905 10.86 11.4857 11.04L10 12.6V13H10.7619L12.0571 11.64C12.2476 11.74 12.4573 11.8 12.6667 11.8C13.4095 11.8 14 11.18 14 10.4C14 9.62 13.4095 9 12.6667 9ZM13.0476 10.4C12.8381 10.4 12.6667 10.22 12.6667 10C12.6667 9.78 12.8381 9.6 13.0476 9.6C13.2571 9.6 13.4286 9.78 13.4286 10C13.4286 10.22 13.2571 10.4 13.0476 10.4Z" fill="black"/>
</svg>
