<svg width="11" height="12" viewBox="0 0 11 12" fill="none" xmlns="http://www.w3.org/2000/svg">
<path d="M10.1731 6.3278C9.80761 6.43091 9.431 6.4831 9.0528 6.48306C7.90117 6.48306 6.81966 6.00754 6.00731 5.14474C5.47387 4.57489 5.09036 3.8665 4.89501 3.09017C4.69967 2.31383 4.69931 1.49668 4.89398 0.720156C4.91829 0.623066 4.91814 0.520893 4.89353 0.423887C4.86893 0.326881 4.82074 0.238452 4.7538 0.167471C4.68686 0.0964896 4.60352 0.0454522 4.51215 0.0194783C4.42078 -0.00649559 4.32458 -0.00649271 4.23321 0.0194866C3.31792 0.278547 2.48287 0.78869 1.81182 1.49874C-0.290788 3.73194 -0.290788 7.36706 1.81182 9.60141C2.31159 10.1352 2.90607 10.5584 3.56086 10.8465C4.21565 11.1347 4.91773 11.282 5.62649 11.28C6.33506 11.2821 7.03699 11.1349 7.6916 10.8469C8.34622 10.5588 8.94053 10.1357 9.44009 9.60198C10.1091 8.88911 10.5897 8.00172 10.8334 7.02904C10.8576 6.93199 10.8574 6.82989 10.8328 6.73295C10.8082 6.63601 10.7601 6.54763 10.6932 6.47664C10.6264 6.40565 10.5432 6.35454 10.4519 6.32842C10.3606 6.3023 10.2645 6.30208 10.1731 6.3278ZM8.67791 8.79189C8.2782 9.21876 7.80274 9.55719 7.27906 9.78761C6.75537 10.018 6.19387 10.1358 5.62703 10.1342C5.06 10.1357 4.49832 10.0178 3.97447 9.7873C3.45061 9.55679 2.97498 9.21827 2.57507 8.79131C0.893208 7.00441 0.893208 4.09631 2.57507 2.30941C2.90007 1.96461 3.27528 1.67772 3.68625 1.45978C3.62609 2.28423 3.73423 3.11276 4.00327 3.88874C4.27232 4.66472 4.69592 5.36987 5.24513 5.95598C5.79576 6.54114 6.45947 6.9923 7.19038 7.27827C7.92128 7.56424 8.70195 7.6782 9.47839 7.61226C9.27208 8.04803 9.00188 8.4462 8.67791 8.79189Z" fill="white"/>
</svg>
