<svg width="12" height="12" viewBox="0 0 12 12" fill="none" xmlns="http://www.w3.org/2000/svg">
<path d="M3.53692 5.64003C3.53692 7.19724 4.80367 8.46399 6.36088 8.46399C7.9181 8.46399 9.18485 7.19724 9.18485 5.64003C9.18485 4.08282 7.9181 2.81607 6.36088 2.81607C4.80367 2.81607 3.53692 4.08282 3.53692 5.64003ZM6.36088 3.94407C7.296 3.94407 8.05684 4.70491 8.05684 5.64003C8.05684 6.57515 7.296 7.33599 6.36088 7.33599C5.42577 7.33599 4.66493 6.57515 4.66493 5.64003C4.66493 4.70491 5.42577 3.94407 6.36088 3.94407ZM5.79575 9.58805H6.92376V11.2801H5.79575V9.58805ZM5.79575 0H6.92376V1.69201H5.79575V0ZM0.719727 5.07603H2.41174V6.20403H0.719727V5.07603ZM10.3078 5.07603H11.9998V6.20403H10.3078V5.07603ZM1.97238 9.22878L3.16806 8.03196L3.96613 8.82946L2.77044 10.0263L1.97238 9.22878ZM8.75226 2.45003L9.94907 1.25321L10.7466 2.05071L9.54976 3.24753L8.75226 2.45003ZM3.16975 3.24809L1.97294 2.05128L2.77101 1.25378L3.96669 2.45059L3.16975 3.24809ZM10.7466 9.22934L9.94907 10.0268L8.75226 8.83003L9.54976 8.03253L10.7466 9.22934Z" fill="white"/>
</svg>
