<svg width="15" height="14" viewBox="0 0 15 14" fill="none" xmlns="http://www.w3.org/2000/svg">
<path d="M4.08488 7C4.08488 8.9327 5.65708 10.5049 7.58978 10.5049C9.52248 10.5049 11.0947 8.9327 11.0947 7C11.0947 5.0673 9.52248 3.4951 7.58978 3.4951C5.65708 3.4951 4.08488 5.0673 4.08488 7ZM6.88838 11.9H8.28838V14H6.88838V11.9ZM6.88838 0H8.28838V2.1H6.88838V0ZM0.588379 6.3H2.68838V7.7H0.588379V6.3ZM12.4884 6.3H14.5884V7.7H12.4884V6.3ZM3.13428 12.4446L2.14448 11.4548L3.62918 9.9701L4.61898 10.9599L3.13428 12.4446ZM10.5578 3.0408L12.0432 1.5554L13.033 2.5452L11.5476 4.0306L10.5578 3.0408ZM3.62918 4.0313L2.14448 2.5459L3.13498 1.5561L4.61898 3.0415L3.62918 4.0313ZM13.033 11.4548L12.0432 12.4446L10.5578 10.9592L11.5476 9.9694L13.033 11.4548Z" fill="white"/>
</svg>
